<mxfile host="app.diagrams.net" modified="2020-11-18T06:19:39.870Z" agent="5.0 (Windows NT 10.0; Win64; x64) AppleWebKit/537.36 (KHTML, like Gecko) Chrome/86.0.4240.198 Safari/537.36" etag="08iu59b7IRi4Geu7wspI" version="13.9.9" type="github">
  <diagram id="h0yh4uh9Ou2qqzZrw4VW" name="Page-1">
    <mxGraphModel dx="1038" dy="491" grid="1" gridSize="10" guides="1" tooltips="1" connect="1" arrows="1" fold="1" page="1" pageScale="1" pageWidth="850" pageHeight="1100" math="0" shadow="0">
      <root>
        <mxCell id="0" />
        <mxCell id="1" parent="0" />
        <mxCell id="OsMlclKe9sGLii8gvVtk-3" value="Yes" style="edgeStyle=orthogonalEdgeStyle;rounded=0;orthogonalLoop=1;jettySize=auto;html=1;entryX=0.5;entryY=0;entryDx=0;entryDy=0;" parent="1" edge="1">
          <mxGeometry relative="1" as="geometry">
            <mxPoint x="665" y="450" as="targetPoint" />
          </mxGeometry>
        </mxCell>
        <mxCell id="U1gIK-Ml1kVYt0ZC6_mx-13" style="edgeStyle=orthogonalEdgeStyle;rounded=0;orthogonalLoop=1;jettySize=auto;html=1;entryX=0.5;entryY=0;entryDx=0;entryDy=0;exitX=0.5;exitY=1;exitDx=0;exitDy=0;" parent="1" edge="1">
          <mxGeometry relative="1" as="geometry">
            <Array as="points" />
            <mxPoint x="220" y="420" as="sourcePoint" />
          </mxGeometry>
        </mxCell>
        <mxCell id="CvozXVyJyX2lD8ZnYhm1-27" value="" style="ellipse;html=1;shape=endState;fillColor=#000000;strokeColor=#ff0000;" parent="1" vertex="1">
          <mxGeometry x="411.25" y="690" width="30" height="30" as="geometry" />
        </mxCell>
        <mxCell id="VSlNwRkXBHqi9DPdbiYh-8" value="Yes" style="edgeStyle=orthogonalEdgeStyle;rounded=0;orthogonalLoop=1;jettySize=auto;html=1;exitX=0;exitY=0.5;exitDx=0;exitDy=0;" parent="1" source="CvozXVyJyX2lD8ZnYhm1-31" target="NJLehydsSoXbE_FqP2UY-3" edge="1">
          <mxGeometry relative="1" as="geometry" />
        </mxCell>
        <mxCell id="VSlNwRkXBHqi9DPdbiYh-9" value="No" style="edgeStyle=orthogonalEdgeStyle;rounded=0;orthogonalLoop=1;jettySize=auto;html=1;entryX=0.5;entryY=0;entryDx=0;entryDy=0;" parent="1" source="CvozXVyJyX2lD8ZnYhm1-31" target="CvozXVyJyX2lD8ZnYhm1-34" edge="1">
          <mxGeometry relative="1" as="geometry" />
        </mxCell>
        <mxCell id="CvozXVyJyX2lD8ZnYhm1-31" value="Account in compliance?" style="rhombus;whiteSpace=wrap;html=1;" parent="1" vertex="1">
          <mxGeometry x="363.93" y="280" width="114.63" height="70" as="geometry" />
        </mxCell>
        <mxCell id="CvozXVyJyX2lD8ZnYhm1-36" style="edgeStyle=orthogonalEdgeStyle;rounded=0;orthogonalLoop=1;jettySize=auto;html=1;entryX=0.5;entryY=0;entryDx=0;entryDy=0;exitX=0.5;exitY=1;exitDx=0;exitDy=0;" parent="1" source="VSlNwRkXBHqi9DPdbiYh-6" target="CvozXVyJyX2lD8ZnYhm1-27" edge="1">
          <mxGeometry relative="1" as="geometry" />
        </mxCell>
        <mxCell id="NJLehydsSoXbE_FqP2UY-7" style="edgeStyle=orthogonalEdgeStyle;rounded=0;orthogonalLoop=1;jettySize=auto;html=1;exitX=0.5;exitY=1;exitDx=0;exitDy=0;entryX=1;entryY=0.75;entryDx=0;entryDy=0;" parent="1" source="CvozXVyJyX2lD8ZnYhm1-34" target="NJLehydsSoXbE_FqP2UY-6" edge="1">
          <mxGeometry relative="1" as="geometry" />
        </mxCell>
        <mxCell id="CvozXVyJyX2lD8ZnYhm1-34" value="Apply restrictions" style="rounded=1;whiteSpace=wrap;html=1;fillColor=#FFFFFF;" parent="1" vertex="1">
          <mxGeometry x="480" y="400" width="200" height="25" as="geometry" />
        </mxCell>
        <mxCell id="VSlNwRkXBHqi9DPdbiYh-3" style="edgeStyle=orthogonalEdgeStyle;rounded=0;orthogonalLoop=1;jettySize=auto;html=1;entryX=0.5;entryY=0;entryDx=0;entryDy=0;" parent="1" source="VSlNwRkXBHqi9DPdbiYh-4" target="CvozXVyJyX2lD8ZnYhm1-31" edge="1">
          <mxGeometry relative="1" as="geometry">
            <mxPoint x="421.25" y="280" as="targetPoint" />
          </mxGeometry>
        </mxCell>
        <mxCell id="VSlNwRkXBHqi9DPdbiYh-1" value="Get latest quotes for positions" style="rounded=1;whiteSpace=wrap;html=1;fillColor=#FFFFFF;" parent="1" vertex="1">
          <mxGeometry x="321.25" y="110" width="200" height="25" as="geometry" />
        </mxCell>
        <mxCell id="VSlNwRkXBHqi9DPdbiYh-4" value="Update margin &lt;br&gt;requirements&amp;nbsp;and equity" style="rounded=1;whiteSpace=wrap;html=1;fillColor=#FFFFFF;" parent="1" vertex="1">
          <mxGeometry x="321.25" y="190" width="200" height="40" as="geometry" />
        </mxCell>
        <mxCell id="VSlNwRkXBHqi9DPdbiYh-5" style="edgeStyle=orthogonalEdgeStyle;rounded=0;orthogonalLoop=1;jettySize=auto;html=1;entryX=0.5;entryY=0;entryDx=0;entryDy=0;" parent="1" source="VSlNwRkXBHqi9DPdbiYh-1" target="VSlNwRkXBHqi9DPdbiYh-4" edge="1">
          <mxGeometry relative="1" as="geometry">
            <mxPoint x="421.25" y="145" as="sourcePoint" />
            <mxPoint x="421.25" y="260" as="targetPoint" />
          </mxGeometry>
        </mxCell>
        <mxCell id="VSlNwRkXBHqi9DPdbiYh-6" value="Send notifications" style="rounded=1;whiteSpace=wrap;html=1;fillColor=#FFFFFF;" parent="1" vertex="1">
          <mxGeometry x="326.25" y="615" width="200" height="25" as="geometry" />
        </mxCell>
        <mxCell id="NJLehydsSoXbE_FqP2UY-2" style="edgeStyle=orthogonalEdgeStyle;rounded=0;orthogonalLoop=1;jettySize=auto;html=1;" parent="1" source="NJLehydsSoXbE_FqP2UY-1" target="VSlNwRkXBHqi9DPdbiYh-1" edge="1">
          <mxGeometry relative="1" as="geometry" />
        </mxCell>
        <mxCell id="NJLehydsSoXbE_FqP2UY-1" value="Cash balance increases" style="html=1;shadow=0;dashed=0;align=center;verticalAlign=middle;shape=mxgraph.arrows2.arrow;dy=0;dx=10;notch=10;" parent="1" vertex="1">
          <mxGeometry x="326.25" y="30" width="190" height="30" as="geometry" />
        </mxCell>
        <mxCell id="NJLehydsSoXbE_FqP2UY-5" style="edgeStyle=orthogonalEdgeStyle;rounded=0;orthogonalLoop=1;jettySize=auto;html=1;exitX=0.5;exitY=1;exitDx=0;exitDy=0;entryX=1;entryY=0.25;entryDx=0;entryDy=0;" parent="1" source="NJLehydsSoXbE_FqP2UY-3" target="NJLehydsSoXbE_FqP2UY-6" edge="1">
          <mxGeometry relative="1" as="geometry">
            <mxPoint x="510" y="330" as="targetPoint" />
          </mxGeometry>
        </mxCell>
        <mxCell id="NJLehydsSoXbE_FqP2UY-3" value="Remove restrictions" style="rounded=1;whiteSpace=wrap;html=1;fillColor=#FFFFFF;" parent="1" vertex="1">
          <mxGeometry x="190" y="400" width="200" height="25" as="geometry" />
        </mxCell>
        <mxCell id="NJLehydsSoXbE_FqP2UY-6" value="" style="rounded=1;whiteSpace=wrap;html=1;fillColor=#000000;rotation=-90;" parent="1" vertex="1">
          <mxGeometry x="416.25" y="460" width="20" height="200" as="geometry" />
        </mxCell>
        <mxCell id="NJLehydsSoXbE_FqP2UY-8" style="edgeStyle=orthogonalEdgeStyle;rounded=0;orthogonalLoop=1;jettySize=auto;html=1;entryX=0.5;entryY=0;entryDx=0;entryDy=0;exitX=0;exitY=0.5;exitDx=0;exitDy=0;" parent="1" source="NJLehydsSoXbE_FqP2UY-6" target="VSlNwRkXBHqi9DPdbiYh-6" edge="1">
          <mxGeometry relative="1" as="geometry">
            <mxPoint x="585" y="480" as="sourcePoint" />
            <mxPoint x="615" y="460" as="targetPoint" />
          </mxGeometry>
        </mxCell>
        <mxCell id="OouD6I3U7f3vESM8vOfz-3" style="edgeStyle=orthogonalEdgeStyle;rounded=0;orthogonalLoop=1;jettySize=auto;html=1;exitX=1;exitY=0.5;exitDx=0;exitDy=0;entryX=0.5;entryY=0.5;entryDx=0;entryDy=0;entryPerimeter=0;" edge="1" parent="1" source="OouD6I3U7f3vESM8vOfz-1" target="OouD6I3U7f3vESM8vOfz-2">
          <mxGeometry relative="1" as="geometry" />
        </mxCell>
        <mxCell id="OouD6I3U7f3vESM8vOfz-1" value="" style="ellipse;whiteSpace=wrap;html=1;aspect=fixed;fillColor=#000000;" vertex="1" parent="1">
          <mxGeometry x="90" y="102.5" width="40" height="40" as="geometry" />
        </mxCell>
        <mxCell id="OouD6I3U7f3vESM8vOfz-4" style="edgeStyle=orthogonalEdgeStyle;rounded=0;orthogonalLoop=1;jettySize=auto;html=1;exitX=0.5;exitY=0.5;exitDx=0;exitDy=0;exitPerimeter=0;entryX=0;entryY=0.5;entryDx=0;entryDy=0;" edge="1" parent="1" source="OouD6I3U7f3vESM8vOfz-2" target="VSlNwRkXBHqi9DPdbiYh-1">
          <mxGeometry relative="1" as="geometry" />
        </mxCell>
        <mxCell id="OouD6I3U7f3vESM8vOfz-2" value="" style="html=1;shape=mxgraph.sysml.timeEvent;strokeWidth=2;verticalLabelPosition=bottom;verticalAlignment=top;" vertex="1" parent="1">
          <mxGeometry x="210" y="102.5" width="35" height="40" as="geometry" />
        </mxCell>
        <mxCell id="OouD6I3U7f3vESM8vOfz-5" value="[ Scheduled Time &amp;gt;= Timer ]" style="text;html=1;strokeColor=none;fillColor=none;align=center;verticalAlign=middle;whiteSpace=wrap;rounded=0;" vertex="1" parent="1">
          <mxGeometry x="145" y="160" width="165" height="20" as="geometry" />
        </mxCell>
      </root>
    </mxGraphModel>
  </diagram>
</mxfile>
